<mxfile host="app.diagrams.net" agent="Mozilla/5.0 (X11; Linux x86_64) AppleWebKit/537.36 (KHTML, like Gecko) Chrome/133.0.0.0 Safari/537.36" version="26.1.1">
  <diagram name="Page-1" id="EPB8xuWnlqUVOH70_Ewr">
    <mxGraphModel dx="2306" dy="945" grid="1" gridSize="10" guides="1" tooltips="1" connect="1" arrows="1" fold="1" page="1" pageScale="1" pageWidth="850" pageHeight="1100" math="0" shadow="0">
      <root>
        <mxCell id="0" />
        <mxCell id="1" parent="0" />
        <mxCell id="noTJ2SI7EE9gjp_z_O8U-2" value="" style="rounded=1;whiteSpace=wrap;html=1;strokeWidth=2;fillWeight=4;hachureGap=8;hachureAngle=45;fillColor=#dae8fc;sketch=1;strokeColor=#6c8ebf;" parent="1" vertex="1">
          <mxGeometry x="-50" y="450" width="960" height="400" as="geometry" />
        </mxCell>
        <mxCell id="noTJ2SI7EE9gjp_z_O8U-25" value="" style="group;rotation=-180;" parent="1" vertex="1" connectable="0">
          <mxGeometry x="100" y="530" width="40" height="20" as="geometry" />
        </mxCell>
        <mxCell id="noTJ2SI7EE9gjp_z_O8U-26" value="" style="triangle;whiteSpace=wrap;html=1;rotation=-270;" parent="noTJ2SI7EE9gjp_z_O8U-25" vertex="1">
          <mxGeometry x="10" y="-10" width="20" height="20" as="geometry" />
        </mxCell>
        <mxCell id="noTJ2SI7EE9gjp_z_O8U-27" value="" style="endArrow=none;html=1;rounded=0;exitX=0;exitY=0.5;exitDx=0;exitDy=0;" parent="noTJ2SI7EE9gjp_z_O8U-25" source="noTJ2SI7EE9gjp_z_O8U-26" edge="1">
          <mxGeometry width="50" height="50" relative="1" as="geometry">
            <mxPoint x="-350" y="-170" as="sourcePoint" />
            <mxPoint x="20" y="30" as="targetPoint" />
          </mxGeometry>
        </mxCell>
        <mxCell id="noTJ2SI7EE9gjp_z_O8U-6" style="edgeStyle=orthogonalEdgeStyle;rounded=0;orthogonalLoop=1;jettySize=auto;html=1;fillColor=#d5e8d4;strokeColor=#82b366;strokeWidth=5;entryX=0;entryY=0.5;entryDx=0;entryDy=0;endArrow=none;startFill=0;exitX=0;exitY=0.5;exitDx=0;exitDy=0;" parent="1" source="noTJ2SI7EE9gjp_z_O8U-7" target="noTJ2SI7EE9gjp_z_O8U-11" edge="1">
          <mxGeometry relative="1" as="geometry">
            <mxPoint x="490" y="270" as="sourcePoint" />
            <mxPoint x="360" y="120" as="targetPoint" />
            <Array as="points">
              <mxPoint x="550" y="440" />
              <mxPoint x="310" y="440" />
            </Array>
          </mxGeometry>
        </mxCell>
        <mxCell id="noTJ2SI7EE9gjp_z_O8U-9" value="" style="group;rotation=-180;" parent="1" vertex="1" connectable="0">
          <mxGeometry x="530" y="540" width="40" height="20" as="geometry" />
        </mxCell>
        <mxCell id="noTJ2SI7EE9gjp_z_O8U-7" value="" style="triangle;whiteSpace=wrap;html=1;rotation=-270;" parent="noTJ2SI7EE9gjp_z_O8U-9" vertex="1">
          <mxGeometry x="10" y="-10" width="20" height="20" as="geometry" />
        </mxCell>
        <mxCell id="noTJ2SI7EE9gjp_z_O8U-8" value="" style="endArrow=none;html=1;rounded=0;exitX=0;exitY=0.5;exitDx=0;exitDy=0;" parent="noTJ2SI7EE9gjp_z_O8U-9" source="noTJ2SI7EE9gjp_z_O8U-7" edge="1">
          <mxGeometry width="50" height="50" relative="1" as="geometry">
            <mxPoint x="-350" y="-170" as="sourcePoint" />
            <mxPoint x="20" y="30" as="targetPoint" />
          </mxGeometry>
        </mxCell>
        <mxCell id="noTJ2SI7EE9gjp_z_O8U-3" value="" style="verticalLabelPosition=bottom;verticalAlign=top;html=1;shape=mxgraph.basic.x" parent="1" vertex="1">
          <mxGeometry x="250" y="100" width="70" height="40" as="geometry" />
        </mxCell>
        <mxCell id="noTJ2SI7EE9gjp_z_O8U-10" value="" style="group;rotation=0;" parent="1" vertex="1" connectable="0">
          <mxGeometry x="290" y="150" width="40" height="20" as="geometry" />
        </mxCell>
        <mxCell id="noTJ2SI7EE9gjp_z_O8U-11" value="" style="triangle;whiteSpace=wrap;html=1;rotation=-90;" parent="noTJ2SI7EE9gjp_z_O8U-10" vertex="1">
          <mxGeometry x="10" y="10" width="20" height="20" as="geometry" />
        </mxCell>
        <mxCell id="noTJ2SI7EE9gjp_z_O8U-12" value="" style="endArrow=none;html=1;rounded=0;exitX=0;exitY=0.5;exitDx=0;exitDy=0;" parent="noTJ2SI7EE9gjp_z_O8U-10" source="noTJ2SI7EE9gjp_z_O8U-11" edge="1">
          <mxGeometry width="50" height="50" relative="1" as="geometry">
            <mxPoint x="390" y="190" as="sourcePoint" />
            <mxPoint x="20" y="-10" as="targetPoint" />
          </mxGeometry>
        </mxCell>
        <mxCell id="noTJ2SI7EE9gjp_z_O8U-1" value="" style="verticalLabelPosition=bottom;verticalAlign=top;html=1;shape=mxgraph.basic.smiley" parent="1" vertex="1">
          <mxGeometry x="520" y="560" width="60" height="50" as="geometry" />
        </mxCell>
        <mxCell id="noTJ2SI7EE9gjp_z_O8U-14" value="Plasmonic Transmission" style="text;strokeColor=none;align=center;fillColor=none;html=1;verticalAlign=middle;whiteSpace=wrap;rounded=0;" parent="1" vertex="1">
          <mxGeometry x="350" y="410" width="150" height="30" as="geometry" />
        </mxCell>
        <mxCell id="noTJ2SI7EE9gjp_z_O8U-15" value="Saltenna" style="text;strokeColor=none;align=center;fillColor=none;html=1;verticalAlign=middle;whiteSpace=wrap;rounded=0;" parent="1" vertex="1">
          <mxGeometry x="320" y="150" width="60" height="30" as="geometry" />
        </mxCell>
        <mxCell id="noTJ2SI7EE9gjp_z_O8U-19" value="Saltenna" style="text;strokeColor=none;align=center;fillColor=none;html=1;verticalAlign=middle;whiteSpace=wrap;rounded=0;" parent="1" vertex="1">
          <mxGeometry x="560" y="520" width="60" height="30" as="geometry" />
        </mxCell>
        <mxCell id="noTJ2SI7EE9gjp_z_O8U-20" value="" style="shape=trapezoid;perimeter=trapezoidPerimeter;whiteSpace=wrap;html=1;fixedSize=1;rotation=-180;" parent="1" vertex="1">
          <mxGeometry x="50" y="550" width="100" height="20" as="geometry" />
        </mxCell>
        <mxCell id="noTJ2SI7EE9gjp_z_O8U-21" value="DiverJoe" style="text;strokeColor=none;align=center;fillColor=none;html=1;verticalAlign=middle;whiteSpace=wrap;rounded=0;" parent="1" vertex="1">
          <mxGeometry x="520" y="610" width="60" height="30" as="geometry" />
        </mxCell>
        <mxCell id="noTJ2SI7EE9gjp_z_O8U-22" value="UAV" style="text;strokeColor=none;align=center;fillColor=none;html=1;verticalAlign=middle;whiteSpace=wrap;rounded=0;" parent="1" vertex="1">
          <mxGeometry x="265" y="115" width="40" height="10" as="geometry" />
        </mxCell>
        <mxCell id="noTJ2SI7EE9gjp_z_O8U-24" value="UUAV" style="text;strokeColor=none;align=center;fillColor=none;html=1;verticalAlign=middle;whiteSpace=wrap;rounded=0;" parent="1" vertex="1">
          <mxGeometry x="80" y="555" width="40" height="10" as="geometry" />
        </mxCell>
        <mxCell id="noTJ2SI7EE9gjp_z_O8U-28" style="edgeStyle=orthogonalEdgeStyle;rounded=0;orthogonalLoop=1;jettySize=auto;html=1;fillColor=#d5e8d4;strokeColor=#82b366;strokeWidth=5;entryX=0;entryY=0.5;entryDx=0;entryDy=0;endArrow=none;startFill=0;exitX=0;exitY=0.5;exitDx=0;exitDy=0;" parent="1" source="noTJ2SI7EE9gjp_z_O8U-26" target="noTJ2SI7EE9gjp_z_O8U-11" edge="1">
          <mxGeometry relative="1" as="geometry">
            <mxPoint x="560" y="540" as="sourcePoint" />
            <mxPoint x="320" y="190" as="targetPoint" />
            <Array as="points">
              <mxPoint x="120" y="460" />
              <mxPoint x="310" y="460" />
            </Array>
          </mxGeometry>
        </mxCell>
        <mxCell id="noTJ2SI7EE9gjp_z_O8U-29" value="Saltenna" style="text;strokeColor=none;align=center;fillColor=none;html=1;verticalAlign=middle;whiteSpace=wrap;rounded=0;" parent="1" vertex="1">
          <mxGeometry x="130" y="510" width="60" height="30" as="geometry" />
        </mxCell>
        <mxCell id="noTJ2SI7EE9gjp_z_O8U-30" value="" style="endArrow=baseDash;html=1;rounded=0;endFill=0;startArrow=baseDash;startFill=0;" parent="1" edge="1">
          <mxGeometry width="50" height="50" relative="1" as="geometry">
            <mxPoint x="730" y="440" as="sourcePoint" />
            <mxPoint x="730" y="180" as="targetPoint" />
          </mxGeometry>
        </mxCell>
        <mxCell id="noTJ2SI7EE9gjp_z_O8U-32" value="" style="endArrow=baseDash;html=1;rounded=0;endFill=0;startArrow=baseDash;startFill=0;" parent="1" edge="1">
          <mxGeometry width="50" height="50" relative="1" as="geometry">
            <mxPoint x="730" y="550" as="sourcePoint" />
            <mxPoint x="730" y="455" as="targetPoint" />
          </mxGeometry>
        </mxCell>
        <mxCell id="noTJ2SI7EE9gjp_z_O8U-33" value="2M" style="text;strokeColor=none;align=center;fillColor=none;html=1;verticalAlign=middle;whiteSpace=wrap;rounded=0;" parent="1" vertex="1">
          <mxGeometry x="740" y="490" width="60" height="30" as="geometry" />
        </mxCell>
        <mxCell id="noTJ2SI7EE9gjp_z_O8U-34" value="3M" style="text;strokeColor=none;align=center;fillColor=none;html=1;verticalAlign=middle;whiteSpace=wrap;rounded=0;" parent="1" vertex="1">
          <mxGeometry x="740" y="290" width="60" height="30" as="geometry" />
        </mxCell>
        <mxCell id="noTJ2SI7EE9gjp_z_O8U-35" value="" style="endArrow=baseDash;html=1;rounded=0;exitX=0.177;exitY=0.55;exitDx=0;exitDy=0;exitPerimeter=0;endFill=0;startArrow=baseDash;startFill=0;" parent="1" source="noTJ2SI7EE9gjp_z_O8U-2" edge="1">
          <mxGeometry width="50" height="50" relative="1" as="geometry">
            <mxPoint x="500" y="720" as="sourcePoint" />
            <mxPoint x="550" y="670" as="targetPoint" />
          </mxGeometry>
        </mxCell>
        <mxCell id="noTJ2SI7EE9gjp_z_O8U-36" value="XM" style="text;strokeColor=none;align=center;fillColor=none;html=1;verticalAlign=middle;whiteSpace=wrap;rounded=0;" parent="1" vertex="1">
          <mxGeometry x="290" y="690" width="60" height="30" as="geometry" />
        </mxCell>
        <mxCell id="noTJ2SI7EE9gjp_z_O8U-37" value="&lt;font style=&quot;font-size: 18px;&quot;&gt;Range: M&lt;/font&gt;&lt;div&gt;&lt;font style=&quot;font-size: 18px;&quot;&gt;Frequency: MHz&lt;/font&gt;&lt;div&gt;&lt;font style=&quot;font-size: 18px;&quot;&gt;Bit Rage: BPS&lt;/font&gt;&lt;/div&gt;&lt;div&gt;&lt;font style=&quot;font-size: 18px;&quot;&gt;Protocol:&lt;/font&gt;&lt;/div&gt;&lt;div&gt;&lt;br&gt;&lt;/div&gt;&lt;/div&gt;" style="text;strokeColor=none;align=left;fillColor=none;html=1;verticalAlign=middle;whiteSpace=wrap;rounded=0;" parent="1" vertex="1">
          <mxGeometry x="-30" y="170" width="150" height="90" as="geometry" />
        </mxCell>
        <mxCell id="p9eNlsJ_qfYkaS-2bIAc-1" value="&lt;font style=&quot;font-size: 28px;&quot;&gt;&lt;b&gt;Arial to Sub Surface Communications&lt;/b&gt;&lt;/font&gt;" style="text;strokeColor=none;align=center;fillColor=none;html=1;verticalAlign=middle;whiteSpace=wrap;rounded=0;" vertex="1" parent="1">
          <mxGeometry x="130" y="20" width="630" height="30" as="geometry" />
        </mxCell>
      </root>
    </mxGraphModel>
  </diagram>
</mxfile>
